<?xml version="1.0" standalone="no"?>
<!DOCTYPE svg PUBLIC "-//W3C//DTD SVG 20010904//EN"
 "http://www.w3.org/TR/2001/REC-SVG-20010904/DTD/svg10.dtd">
<svg version="1.0" xmlns="http://www.w3.org/2000/svg"
 width="512.000000pt" height="512.000000pt" viewBox="0 0 512.000000 512.000000"
 preserveAspectRatio="xMidYMid meet">

<g transform="translate(0.000000,512.000000) scale(0.100000,-0.100000)"
fill="#000000" stroke="none">
<path d="M2257 4800 c-14 -11 -31 -37 -38 -57 -10 -31 -9 -41 6 -69 30 -56
100 -71 149 -33 37 29 47 59 35 103 -19 69 -98 98 -152 56z"/>
<path d="M2657 4770 c-21 -14 -47 -62 -47 -89 0 -61 39 -90 154 -116 43 -9
104 -26 135 -38 48 -18 79 -21 226 -21 158 -1 173 -3 218 -25 49 -24 88 -65
106 -114 19 -51 63 -67 181 -67 279 0 474 -115 528 -312 11 -42 12 -42 -71
-53 -116 -16 -226 -73 -301 -156 -46 -51 -86 -122 -86 -153 0 -34 32 -78 67
-92 55 -23 95 -5 138 62 81 126 277 183 413 119 125 -58 174 -111 186 -199 5
-44 13 -55 74 -115 75 -73 96 -119 90 -201 l-3 -45 -68 -17 c-205 -54 -342
-200 -355 -379 -4 -65 -3 -69 26 -98 34 -35 75 -40 121 -16 29 14 37 30 65
126 26 90 105 156 201 167 39 4 43 2 98 -58 158 -170 200 -427 126 -768 -76
-349 -234 -561 -449 -602 -50 -9 -51 -9 -112 35 -132 98 -465 235 -568 235
-91 0 -135 -107 -71 -171 16 -16 38 -29 48 -29 10 0 71 -18 136 -40 122 -41
266 -110 335 -160 l39 -28 -8 -53 c-26 -165 -174 -303 -386 -361 -61 -16 -108
-21 -218 -21 -159 0 -232 13 -382 69 -111 42 -151 40 -187 -9 -19 -26 -21 -42
-21 -165 0 -75 3 -164 7 -198 l7 -60 -112 -18 c-62 -9 -119 -19 -128 -22 -14
-4 -24 25 -59 168 -93 376 -196 609 -360 820 -25 32 -36 27 135 62 118 24 276
48 404 62 53 5 70 12 93 34 40 40 39 100 -1 141 -25 24 -38 29 -80 29 -120 0
-476 -61 -698 -119 -130 -35 -360 -57 -493 -48 -315 22 -542 184 -579 415 -5
34 -7 77 -4 96 16 103 -55 158 -164 127 -73 -21 -328 34 -460 99 -97 48 -175
119 -205 187 -15 34 -23 78 -27 151 l-6 104 -42 36 c-74 64 -76 100 -15 214
l36 66 -14 64 c-48 220 -15 389 98 489 26 23 88 61 138 86 96 46 104 55 120
133 10 54 49 124 88 157 59 52 123 65 278 53 70 -5 106 17 126 76 39 117 162
193 348 214 65 7 82 6 95 -6 26 -23 87 -152 104 -219 21 -82 19 -132 -9 -219
-13 -41 -21 -86 -19 -100 11 -58 99 -95 154 -66 29 16 70 106 83 184 12 68 13
70 52 83 57 21 152 21 191 0 18 -9 44 -37 59 -62 33 -57 59 -75 107 -75 55 0
97 43 97 99 0 52 -67 151 -133 197 -89 62 -218 81 -336 50 -47 -12 -53 -12
-58 3 -25 68 -48 120 -70 158 -14 24 -24 46 -22 48 2 2 51 19 108 39 56 19
111 42 122 52 48 44 27 133 -38 161 -34 14 -41 13 -133 -16 -53 -17 -130 -46
-171 -64 -59 -27 -92 -35 -166 -41 -227 -17 -422 -111 -503 -245 -25 -40 -25
-40 -87 -41 -216 -1 -381 -116 -448 -313 -10 -31 -24 -57 -29 -57 -24 0 -153
-87 -205 -139 -60 -60 -119 -161 -145 -251 -25 -83 -30 -220 -12 -318 14 -78
14 -85 -4 -115 -71 -123 -63 -271 20 -371 35 -43 40 -54 40 -100 0 -94 46
-214 114 -295 58 -70 125 -119 231 -171 119 -59 233 -93 390 -117 110 -16 116
-18 121 -42 55 -279 218 -456 504 -549 158 -52 355 -66 575 -42 l90 10 49 -52
c170 -185 267 -395 367 -790 77 -309 92 -338 174 -338 22 0 143 18 268 39 297
51 302 54 268 220 -11 53 -22 122 -25 154 -4 51 -3 57 12 53 141 -43 270 -60
420 -54 158 7 262 32 398 98 201 97 327 258 368 470 5 22 13 28 65 38 145 30
300 148 410 312 83 124 141 288 188 525 26 137 24 392 -5 507 -37 149 -113
288 -205 377 -32 30 -34 36 -26 64 14 50 11 178 -7 238 -20 68 -56 131 -109
189 -24 26 -47 64 -54 89 -7 24 -23 60 -36 80 -36 57 -135 143 -208 180 -52
27 -69 40 -72 60 -30 161 -72 255 -151 341 -122 131 -298 205 -539 225 -79 7
-81 8 -110 46 -37 50 -114 103 -190 131 -51 19 -83 23 -220 25 -145 2 -170 5
-265 33 -118 34 -216 46 -243 30z"/>
<path d="M2727 4329 c-58 -14 -77 -27 -93 -66 -20 -46 -4 -97 38 -123 26 -16
44 -17 124 -13 113 7 165 -9 217 -66 29 -33 77 -132 77 -160 0 -21 63 -61 95
-61 40 0 90 38 99 76 8 31 -16 118 -51 188 -33 65 -111 146 -171 179 -91 49
-236 69 -335 46z"/>
<path d="M785 3761 c-45 -19 -60 -50 -56 -110 11 -155 7 -204 -22 -253 -30
-52 -61 -77 -148 -119 -47 -23 -63 -37 -75 -65 -29 -70 19 -140 96 -138 43 2
156 58 214 107 l39 34 61 -31 c133 -66 364 -36 469 62 20 20 27 35 27 65 0 49
-13 73 -50 92 -41 21 -58 19 -136 -17 -90 -41 -180 -45 -236 -10 -33 21 -37
27 -30 50 11 40 7 191 -7 239 -6 24 -22 54 -34 68 -24 28 -79 40 -112 26z"/>
<path d="M2393 3476 c-32 -15 -63 -60 -63 -94 0 -30 46 -157 80 -220 17 -32
53 -86 81 -120 49 -60 49 -62 35 -91 -21 -40 -69 -78 -143 -113 -70 -34 -99
-76 -88 -128 9 -40 58 -80 99 -80 76 0 251 119 307 209 l16 25 54 -17 c117
-37 249 -48 292 -26 62 32 76 107 29 160 -25 28 -33 31 -122 39 -225 19 -352
126 -430 363 -29 91 -80 122 -147 93z"/>
<path d="M3224 3386 c-27 -27 -34 -42 -34 -72 0 -32 6 -43 42 -73 163 -139
219 -229 226 -365 5 -94 -11 -163 -59 -258 -39 -77 -38 -111 5 -154 85 -85
170 -11 237 206 33 104 33 256 2 355 -43 136 -148 277 -264 354 -77 52 -109
53 -155 7z"/>
<path d="M1502 2955 c-27 -22 -30 -31 -35 -104 -4 -61 -11 -91 -33 -131 -36
-65 -109 -134 -132 -124 -96 42 -305 59 -362 29 -66 -34 -79 -103 -31 -157 28
-32 29 -32 127 -33 116 -2 166 -14 221 -54 56 -41 84 -103 92 -205 7 -90 25
-131 67 -146 43 -17 72 -11 106 19 33 29 33 30 32 118 -1 93 -21 182 -56 245
l-21 37 57 63 c32 34 74 96 94 137 33 67 37 83 40 172 l4 98 -30 31 c-40 39
-97 42 -140 5z"/>
<path d="M3899 2511 c-48 -48 -43 -94 18 -179 44 -62 133 -137 193 -164 24
-10 30 -18 25 -33 -13 -49 -17 -174 -6 -227 27 -128 132 -268 201 -268 66 0
110 45 110 111 0 20 -12 42 -40 73 -54 58 -70 102 -69 183 2 109 4 113 86 138
80 25 187 81 220 117 42 45 39 103 -8 147 -35 32 -86 27 -155 -14 -33 -20 -84
-43 -114 -52 -105 -31 -211 14 -284 120 -58 84 -123 102 -177 48z"/>
<path d="M2718 2389 c-121 -152 -182 -189 -318 -196 -64 -3 -103 0 -158 15
-83 23 -106 20 -144 -16 -22 -20 -28 -35 -28 -67 0 -22 7 -50 15 -62 22 -31
111 -61 218 -74 174 -22 334 27 456 137 69 63 141 165 141 201 0 59 -46 102
-107 103 -37 0 -46 -5 -75 -41z"/>
<path d="M3284 1806 c-33 -33 -36 -40 -31 -77 6 -48 29 -76 71 -87 42 -11 71
-4 100 24 28 29 35 58 24 100 -11 42 -39 65 -87 71 -37 5 -44 2 -77 -31z"/>
</g>
</svg>
