<?xml version="1.0" standalone="no"?>
<!DOCTYPE svg PUBLIC "-//W3C//DTD SVG 20010904//EN"
 "http://www.w3.org/TR/2001/REC-SVG-20010904/DTD/svg10.dtd">
<svg version="1.0" xmlns="http://www.w3.org/2000/svg"
 width="512.000000pt" height="512.000000pt" viewBox="0 0 512.000000 512.000000"
 preserveAspectRatio="xMidYMid meet">

<g transform="translate(0.000000,512.000000) scale(0.100000,-0.100000)"
fill="#000000" stroke="none">
<path d="M2370 4867 c-64 -18 -108 -47 -171 -114 -125 -132 -216 -306 -254
-487 -8 -43 -20 -140 -24 -215 -10 -155 -28 -214 -93 -312 -22 -33 -63 -77
-89 -97 -27 -20 -49 -39 -49 -43 0 -9 95 -49 155 -65 105 -28 240 -12 346 41
l50 26 -20 27 c-11 15 -29 56 -41 91 -20 60 -21 81 -18 302 2 141 7 242 13
248 7 7 37 -8 90 -45 110 -76 261 -148 375 -178 97 -25 224 -46 286 -46 l34 0
0 98 c0 156 -33 253 -116 339 -40 43 -47 56 -64 136 -24 111 -52 167 -107 218
-80 73 -204 104 -303 76z"/>
<path d="M656 3334 c-59 -88 -86 -148 -86 -190 l0 -24 -160 0 c-88 0 -160 -3
-160 -7 1 -5 26 -57 58 -118 92 -177 129 -195 412 -195 283 0 320 18 412 195
32 61 57 113 58 118 0 4 -72 7 -160 7 l-160 0 0 24 c0 13 -6 42 -14 64 -15 42
-124 212 -136 212 -4 0 -33 -39 -64 -86z"/>
<path d="M1965 1479 l-40 -122 -89 -83 c-49 -46 -92 -84 -97 -84 -4 0 -103 57
-220 126 -116 69 -226 130 -243 135 -101 30 -221 2 -294 -69 -125 -122 -130
-302 -13 -425 20 -21 49 -45 64 -53 15 -8 204 -87 419 -175 l392 -160 78 78
78 78 122 -41 123 -40 190 38 c105 21 195 36 200 34 6 -2 28 -90 50 -196 32
-159 41 -191 54 -187 63 18 1385 566 1417 588 50 34 98 107 115 172 34 136
-45 290 -177 349 -54 23 -151 27 -208 8 -21 -7 -140 -73 -263 -147 l-224 -135
-57 50 c-131 115 -147 137 -188 265 l-38 117 -556 0 -556 0 -39 -121z"/>
</g>
</svg>
