<?xml version="1.0" standalone="no"?>
<!DOCTYPE svg PUBLIC "-//W3C//DTD SVG 20010904//EN"
 "http://www.w3.org/TR/2001/REC-SVG-20010904/DTD/svg10.dtd">
<svg version="1.0" xmlns="http://www.w3.org/2000/svg"
 width="512.000000pt" height="512.000000pt" viewBox="0 0 512.000000 512.000000"
 preserveAspectRatio="xMidYMid meet">

<g transform="translate(0.000000,512.000000) scale(0.100000,-0.100000)"
fill="#000000" stroke="none">
<path d="M651 4596 c-48 -26 -50 -43 -51 -323 l0 -263 -260 0 c-283 0 -305 -4
-328 -55 -9 -20 -12 -389 -12 -1546 0 -1628 -2 -1561 47 -1585 10 -5 450 -11
978 -14 956 -5 960 -6 1040 -28 146 -41 284 -116 392 -213 84 -77 122 -77 206
0 109 98 249 174 392 212 70 19 116 23 371 28 325 7 321 6 345 78 13 42 -1 84
-37 108 -33 21 -522 22 -646 0 -98 -17 -239 -64 -316 -105 -61 -33 -62 -28 -6
56 71 106 200 203 324 242 19 6 334 59 699 117 365 58 672 110 682 115 51 28
49 -10 49 905 l0 850 200 200 200 200 0 -1283 0 -1282 -215 0 c-237 0 -251 -3
-275 -60 -15 -37 1 -92 37 -120 24 -19 40 -20 300 -20 297 0 318 3 341 55 9
20 12 396 12 1579 0 1521 0 1555 -20 1618 -67 218 -300 335 -515 259 -32 -11
-61 -21 -62 -21 -2 0 -3 52 -3 115 0 131 -11 165 -60 185 -27 11 -107 1 -700
-94 -416 -66 -699 -116 -747 -131 -156 -49 -321 -172 -408 -304 -22 -33 -42
-60 -45 -60 -3 0 -23 27 -45 60 -88 132 -252 255 -410 305 -51 16 -316 63
-738 130 -362 57 -666 104 -675 104 -9 -1 -28 -7 -41 -14z m611 -276 c843
-134 779 -121 897 -187 94 -52 182 -146 231 -246 73 -148 70 -77 70 -1481 l0
-1259 -52 50 c-100 93 -198 149 -330 186 -46 13 -352 66 -680 118 l-598 94 0
1398 c0 899 3 1397 10 1397 5 0 209 -32 452 -70z m3058 -67 l0 -138 -480 -480
-480 -480 -185 -405 c-185 -404 -199 -445 -175 -491 12 -21 60 -49 87 -49 9 0
197 82 418 181 l400 182 208 206 207 206 0 -695 0 -695 -613 -97 c-386 -61
-643 -107 -693 -122 -100 -32 -215 -99 -293 -172 l-61 -56 0 1258 c0 1404 -3
1333 70 1482 76 153 236 279 397 312 72 15 1140 187 1171 189 22 1 22 0 22
-136z m490 -133 c48 -25 85 -71 100 -128 21 -82 -9 -148 -119 -257 l-71 -70
-140 140 -140 140 78 78 c42 43 93 87 112 97 48 26 129 26 180 0z m-4210
-1478 c0 -1259 -3 -1194 49 -1221 10 -6 303 -55 652 -110 349 -56 663 -108
697 -116 140 -34 277 -130 356 -249 56 -84 55 -89 -6 -56 -29 15 -93 42 -142
59 -173 61 -173 61 -1132 61 l-874 0 0 1400 0 1400 200 0 200 0 0 -1168z
m3620 523 l-355 -355 -140 140 -140 140 355 355 355 355 140 -140 140 -140
-355 -355z m-540 -466 c0 -6 -381 -182 -385 -177 -2 3 48 117 139 313 l37 79
104 -104 c58 -58 105 -107 105 -111z"/>
<path d="M4029 1131 c-64 -65 -20 -171 71 -171 58 0 100 42 100 100 0 91 -106
135 -171 71z"/>
</g>
</svg>
